<svg viewBox="0 0 40 24" xmlns="http://www.w3.org/2000/svg">
  <path fill="#76C2AF" d="M3.968 23.083c-1.654 0-3-1.346-3-3v-16c0-1.654 1.346-3 3-3h32c1.654 0 3 1.346 3 3v16c0 1.654-1.346 3-3 3h-32z"/>
  <path fill="#E0E0D1" d="M35.968 2.083c1.103 0 2 .897 2 2v16c0 1.103-.897 2-2 2h-32c-1.103 0-2-.897-2-2v-16c0-1.103.897-2 2-2h32m0-2h-32a4 4 0 0 0-4 4v16a4 4 0 0 0 4 4h32a4 4 0 0 0 4-4v-16a4 4 0 0 0-4-4z"/>
  <circle r="6" fill="#4F5D73" cy="12.083" cx="19.968"/>
  <text id="bill-value" font-weight="bold" font-family="Georgia, Times, 'Times New Roman', serif" font-size="6" y="13.5" x="20" fill="#fff" text-anchor="middle">100</text>
  <g fill="#E0E0D1">
    <circle r="4.031" cy="4.099" cx="35.952"/>
    <circle r="4.031" cy="4.099" cx="3.983"/>
    <circle r="4.031" cy="20.068" cx="35.952"/>
    <circle r="4.031" cy="20.068" cx="3.983"/>
  </g>
</svg>
