<svg viewBox="0 0 64 64" height="256" width="256" xmlns="http://www.w3.org/2000/svg">
  <circle cx="32" cy="32" fill="#4F5D73" r="32"/>
  <g opacity=".2">
    <path d="M49.969 33.062a4.031 4.031 0 0 1-4.031-4.031c0-.359.062-.7.15-1.031H21.881c.088.331.15.672.15 1.031A4.031 4.031 0 0 1 18 33.062a4.03 4.03 0 0 1-1-.14v8.187c.322-.083.653-.14 1-.14A4.031 4.031 0 0 1 22.031 45c0 .347-.058.678-.14 1h24.187a3.983 3.983 0 0 1-.14-1 4.031 4.031 0 0 1 4.031-4.031c.359 0 .7.062 1.031.15v-8.206a3.987 3.987 0 0 1-1.031.149zM34 43a6 6 0 1 1 0-12 6 6 0 0 1 0 12z" fill="#231F20"/>
    <path d="M50 25H18a4.033 4.033 0 0 0-4.031 4.031c0 .106.023.206.031.31V44.69c-.008.104-.031.204-.031.31A4.031 4.031 0 0 0 18 49.031c.106 0 .206-.023.31-.031h31.349c.104.008.204.031.31.031A4.033 4.033 0 0 0 54 45V29a4 4 0 0 0-4-4zm-.031 15.969A4.031 4.031 0 0 0 45.938 45c0 .347.058.678.14 1H21.891c.083-.322.14-.653.14-1A4.031 4.031 0 0 0 18 40.969a4.03 4.03 0 0 0-1 .14v-8.187c.322.083.653.14 1 .14a4.031 4.031 0 0 0 4.031-4.031c0-.359-.062-.7-.15-1.031h24.206c-.088.331-.15.672-.15 1.031a4.031 4.031 0 0 0 4.031 4.031c.359 0 .7-.062 1.031-.15v8.206a4.017 4.017 0 0 0-1.03-.149z" fill="#231F20"/>
    <circle cx="34" cy="37" fill="#231F20" r="6"/>
  </g>
  <path d="M18 46c-1.654 0-3-1.346-3-3V27c0-1.654 1.346-3 3-3h32c1.654 0 3 1.346 3 3v16c0 1.654-1.346 3-3 3H18z" fill="#76C2AF"/>
  <path d="M50 25c1.103 0 2 .897 2 2v16c0 1.103-.897 2-2 2H18c-1.103 0-2-.897-2-2V27c0-1.103.897-2 2-2h32m0-2H18a4 4 0 0 0-4 4v16a4 4 0 0 0 4 4h32a4 4 0 0 0 4-4V27a4 4 0 0 0-4-4z" fill="#E0E0D1"/>
  <circle cx="34" cy="35" fill="#4F5D73" r="6"/>
  <circle cx="49.969" cy="27.031" fill="#E0E0D1" r="4.031"/>
  <circle cx="18" cy="27.031" fill="#E0E0D1" r="4.031"/>
  <circle cx="49.969" cy="43" fill="#E0E0D1" r="4.031"/>
  <g>
    <circle cx="18" cy="43" fill="#E0E0D1" r="4.031"/>
  </g>
  <g>
    <g opacity=".2">
      <path d="M47.969 29.062a4.031 4.031 0 0 1-4.031-4.031c0-.359.062-.7.15-1.031H19.881c.088.331.15.672.15 1.031A4.031 4.031 0 0 1 16 29.062a4.03 4.03 0 0 1-1-.14v8.187c.322-.083.653-.14 1-.14A4.031 4.031 0 0 1 20.031 41c0 .347-.058.678-.14 1h24.187a3.983 3.983 0 0 1-.14-1 4.031 4.031 0 0 1 4.031-4.031c.359 0 .7.062 1.031.15v-8.206a3.987 3.987 0 0 1-1.031.149zM32 39a6 6 0 1 1 0-12 6 6 0 0 1 0 12z" fill="#231F20"/>
      <path d="M48 21H16a4.033 4.033 0 0 0-4.031 4.031c0 .106.023.206.031.31V40.69c-.008.104-.031.204-.031.31A4.031 4.031 0 0 0 16 45.031c.106 0 .206-.023.31-.031h31.349c.104.008.204.031.31.031A4.033 4.033 0 0 0 52 41V25a4 4 0 0 0-4-4zm-.031 15.969A4.031 4.031 0 0 0 43.938 41c0 .347.058.678.14 1H19.891c.083-.322.14-.653.14-1A4.031 4.031 0 0 0 16 36.969a4.03 4.03 0 0 0-1 .14v-8.187c.322.083.653.14 1 .14a4.031 4.031 0 0 0 4.031-4.031c0-.359-.062-.7-.15-1.031h24.206c-.088.331-.15.672-.15 1.031a4.031 4.031 0 0 0 4.031 4.031c.359 0 .7-.062 1.031-.15v8.206a4.017 4.017 0 0 0-1.03-.149z" fill="#231F20"/>
      <circle cx="32" cy="33" fill="#231F20" r="6"/>
    </g>
    <path d="M14 42c-1.654 0-3-1.346-3-3V23c0-1.654 1.346-3 3-3h32c1.654 0 3 1.346 3 3v16c0 1.654-1.346 3-3 3H14z" fill="#76C2AF"/>
    <path d="M46 21c1.103 0 2 .897 2 2v16c0 1.103-.897 2-2 2H14c-1.103 0-2-.897-2-2V23c0-1.103.897-2 2-2h32m0-2H14a4 4 0 0 0-4 4v16a4 4 0 0 0 4 4h32a4 4 0 0 0 4-4V23a4 4 0 0 0-4-4z" fill="#E0E0D1"/>
    <circle cx="30" cy="31" fill="#4F5D73" r="6"/>
    <circle cx="45.969" cy="23.031" fill="#E0E0D1" r="4.031"/>
    <circle cx="14" cy="23.031" fill="#E0E0D1" r="4.031"/>
    <circle cx="45.969" cy="39" fill="#E0E0D1" r="4.031"/>
    <g>
      <circle cx="14" cy="39" fill="#E0E0D1" r="4.031"/>
    </g>
  </g>
</svg>
